# xmcd CD database file
# Copyright (C) 1993-1998 Ti Kan
# 
# Track frame offsets:
#     182
#     14140
#     27220
#     67192
#     77722
#     89375
#     105677
#     126545
#     143325
#     154860
#     167530
#     178195
#     192137
#     209312
#     221827
#     236152
# 
# Disc length: 3332 seconds
# 
# Revision: 1
# Processed by: cddbd v1.4b41PL1 Copyright (c) Steve Scherf et al.
# Submitted via: DiscPlay 4.0.4
# 
DISCID=e80d0210
DTITLE=Bread - Heroes Of PopMusic
DYEAR=1900
DGENRE=
TTITLE0=Everything I Own
TTITLE1=Lost Without Your Love
TTITLE2=Clouds
TTITLE3=Let Your Love Go
TTITLE4=Sweet Surrender
TTITLE5=Aubrey
TTITLE6=Lorilee
TTITLE7=The Guitar Man
TTITLE8=If
TTITLE9=It Don't Matter To Me
TTITLE10=Baby I'm A Want You
TTITLE11=Diary
TTITLE12=Ann
TTITLE13=Goodbye Girl
TTITLE14=Make It With You
TTITLE15=Never Let Her Go
EXTD=
EXTT0=
EXTT1=
EXTT2=
EXTT3=
EXTT4=
EXTT5=
EXTT6=
EXTT7=
EXTT8=
EXTT9=
EXTT10=
EXTT11=
EXTT12=
EXTT13=
EXTT14=
EXTT15=
PLAYORDER=
